<svg width="24" height="25" viewBox="0 0 24 25" fill="none" xmlns="http://www.w3.org/2000/svg">
<path d="M5.07422 8.49852C5.81191 7.2208 6.88856 6.17197 8.18515 5.46798C9.48174 4.76399 10.9478 4.43226 12.4211 4.50948C13.8945 4.5867 15.3178 5.06984 16.5337 5.90551C17.7496 6.74117 18.7107 7.8968 19.3108 9.24462" stroke="#2B3F6C" stroke-width="2" stroke-linecap="round"/>
<path d="M3.23431 6.01446L3.96372 9.174C4.08795 9.71213 4.62491 10.0477 5.16304 9.92343L8.32257 9.19401" stroke="#2B3F6C" stroke-width="2" stroke-linecap="round"/>
<path d="M18.9297 16.5015C18.192 17.7792 17.1153 18.828 15.8188 19.532C14.5222 20.236 13.0562 20.5677 11.5828 20.4905C10.1094 20.4133 8.68613 19.9302 7.47023 19.0945C6.25434 18.2588 5.29321 17.1032 4.69312 15.7554" stroke="#2B3F6C" stroke-width="2" stroke-linecap="round"/>
<path d="M20.7696 18.9855L20.0402 15.826C19.916 15.2879 19.379 14.9523 18.8409 15.0766L15.6813 15.806" stroke="#2B3F6C" stroke-width="2" stroke-linecap="round"/>
</svg>
